<svg xmlns="http://www.w3.org/2000/svg" width="375.458" height="329.288" viewBox="0 0 375.458 329.288"><defs><style>.a{fill:#fff;}.b{fill:#74c66d;}.c{fill:#211715;}.d{fill:#85807f;}.e{fill:#c6c6c6;}</style></defs><path class="a" d="M224.6,79.711a7.344,7.344,0,0,1,5.308-1.943,6.813,6.813,0,0,1,6.12,3.4c2.08,3.607,1.992,10.252.6,14.364-.989,2.912-2.608,7.366-6.512,10.561a7.9,7.9,0,0,1-6.918,1.647,56.51,56.51,0,0,1-10.532,20.252,39.576,39.576,0,0,1-11.31,9.857c0,4.381,0,7.282,0,7.282a11.12,11.12,0,0,0,.476,3.943,9.579,9.579,0,0,0,2.876,4.186c2.923,2.355,5.927,3.48,9.626,4.871l2.78,1.1-8.189,4.967a69.78,69.78,0,0,1-61.975-.128l-8.431-4.578c1.478-.58,3.453-1.358,3.453-1.358,3.7-1.391,6.7-2.516,9.626-4.871a9.579,9.579,0,0,0,2.876-4.186,11.142,11.142,0,0,0,.475-3.943s0-2.329,0-6.184a43.875,43.875,0,0,1-12.587-10.955A56.492,56.492,0,0,1,131.84,107.8a7.969,7.969,0,0,1-6.682-1.71c-3.9-3.2-5.523-7.649-6.511-10.561-1.4-4.112-1.484-10.757.595-14.364a6.815,6.815,0,0,1,6.12-3.4,7.344,7.344,0,0,1,5.308,1.943s-12.534-46.749,46.964-46.749S224.6,79.711,224.6,79.711Z"/><path class="a" d="M82.8,305.456a29.609,29.609,0,0,1-12.371-11.3c-7.019-11.851-13-42.118-18.787-58.042l39.716-49.067,1.69-2.089c3.127-4.567,8.8-9.172,13.349-12.059,10.188-6.46,22.1-9.918,32.561-14.026,8.184,6.883,23.32,12.464,39.1,12.511a70.767,70.767,0,0,0,30.862-7.194l9.058-5.224c6.687,1.993,16.307,5.767,20.949,7.731a62.74,62.74,0,0,1,17.922,11.31c6.257,5.566,10.033,12.72,13.171,21.2-.46,5.8-.241,12.6,1.659,17.02,1.144,2.68.073,6.193-.434,7.554a11.481,11.481,0,0,0,2.5,1.453c8.337,3.888,12.945,5.049,21.78,7.612l9.555,3.266c-5.791,15.924-11.768,46.191-18.787,58.042a29.65,29.65,0,0,1-18.424,13.461c-7.54,1.75-17.581-2.183-21.991-9.788l-1.731-2.144c-.132,10.73-.47,20.766-.573,29.843a1.875,1.875,0,0,1-.26.86,1.844,1.844,0,0,1-1.11.39c-10.25,0-123.152.12-128.022.1a1.281,1.281,0,0,1-1.13-.56,8.147,8.147,0,0,1-.134-1.815c-.1-8.992-.221-19.122-.351-29.641l-1.721,2.967c-4.41,7.605-14.451,11.538-21.991,9.788A28.3,28.3,0,0,1,82.8,305.456Z"/><path class="b" d="M243.567,325.528a1.875,1.875,0,0,1-.26.86,1.844,1.844,0,0,1-1.11.39c-10.25,0-123.15.12-128.02.1a1.281,1.281,0,0,1-1.13-.56,7.743,7.743,0,0,1-.13-1.81c-.15-12.34-.32-26.83-.5-41.52h3.1c3.33-32.05,5.11-63.81,6.31-78.85.19-8.34.59-24.98.68-38.26v-.84c4.16-1.64,8.34-3.11,12.37-4.61v1.31c-.05,11.66-.35,32.66-.35,42.24,9.33,0,62.82.69,85.73.22-.06-13.13.18-31.14.02-44.51,4.42,1.43,9.6,3.37,13.76,5.02.02.25.03.4.03.4.74,20.29.81,29.12,1.57,45.6.26,9.33,2.64,41.35,5.78,68.08h2.94c-.22,16.63-.41,33.23-.57,47.01"/><path class="c" d="M94.815,186.623c3.748-5.67,9.761-10.017,15.6-13.33,6.36-3.611,13.21-6.195,20.061-8.7,3.824-1.4,7.656-2.778,11.423-4.327a2.478,2.478,0,0,0,1.676-2.952,2.415,2.415,0,0,0-2.952-1.677c-14.117,5.805-29.144,9.664-41.259,19.4A41.058,41.058,0,0,0,90.67,184.2c-1.708,2.585,2.447,4.991,4.145,2.423Z"/><path class="c" d="M108.882,212.354c.311,13.279.513,26.561.71,39.842q.359,24.239.641,48.478.153,12.564.294,25.127c.035,3.087,4.835,3.1,4.8,0q-.262-23.136-.558-46.272-.3-23.344-.684-46.688-.175-10.244-.4-20.487c-.073-3.083-4.873-3.1-4.8,0Z"/><path class="c" d="M120.1,165.881c-.051,8.008-.192,16.014-.357,24.02-.122,5.964-.151,11.932-.593,17.88-1.088,14.644-2.02,29.3-3.193,43.937-.836,10.432-1.764,20.857-2.843,31.266a2.416,2.416,0,0,0,2.4,2.4,2.454,2.454,0,0,0,2.4-2.4c1.83-17.658,3.223-35.358,4.477-53.065.474-6.682.922-13.365,1.406-20.046.416-5.747.566-11.472.689-17.235.19-8.918.357-17.837.414-26.757.02-3.089-4.78-3.092-4.8,0Z"/><path class="c" d="M217.893,160.862c.135,14.444-.1,28.889-.033,43.334l2.4-2.4c-12.1.248-24.2.185-36.3.132q-18.811-.083-37.622-.273c-3.937-.033-7.874-.08-11.811-.081l2.4,2.4c0-14.08.29-28.158.346-42.237.012-3.089-4.788-3.093-4.8,0-.056,14.079-.342,28.157-.346,42.237a2.436,2.436,0,0,0,2.4,2.4c8.87,0,17.74.136,26.609.207,13.436.108,26.873.2,40.31.179,6.271-.01,12.544-.036,18.814-.164a2.437,2.437,0,0,0,2.4-2.4c-.065-14.445.168-28.89.033-43.334-.029-3.087-4.829-3.095-4.8,0Z"/><path class="c" d="M243.816,278.784c-1.958-16.711-3.493-33.478-4.723-50.258-.888-12.109-1.385-24.232-1.763-36.366-.28-9.017-.537-18.035-.866-27.051-.112-3.079-4.912-3.094-4.8,0,.557,15.273,1.027,30.549,1.576,45.822.461,12.81,1.608,25.614,2.756,38.378.885,9.837,1.87,19.666,3.02,29.475a2.473,2.473,0,0,0,2.4,2.4,2.415,2.415,0,0,0,2.4-2.4Z"/><path class="d" d="M231.621,41.908c-2.326-7.11-6.137-13.395-11.676-17.83L213.7,17.532C206.62,8.194,195.107,3.132,178.66,2.41c-21.4-.724-37.191,8.852-44.182,17.768l1.434,1.482c-14.512,12.6-19.794,35.127-12.757,56.446a8.979,8.979,0,0,1,2.207-.338,7.344,7.344,0,0,1,5.308,1.943l7.506-6.3c5.633-6.277,15.576-15.738,22.553-19.4.818-.429,1.869.152,2.2,1.519a8.974,8.974,0,0,1,.215,3.273,1.7,1.7,0,0,0,2.429,1.83c4.981-2.767,13.856-8.336,20.149-10.988l9.332,1.147a30.138,30.138,0,0,1,8.595,5.405c5.664,4.874,11.1,11.561,13.5,17.613l7.449,5.9a7.344,7.344,0,0,1,5.308-1.943,8.814,8.814,0,0,1,2.479.423C235.267,66.789,235.346,53.291,231.621,41.908Z"/><path class="c" d="M145.732,166.139a72.642,72.642,0,0,0,51.439,5.055,69.17,69.17,0,0,0,12.959-4.927c2.761-1.385.333-5.527-2.423-4.144a67.6,67.6,0,0,1-47.453,4.452,62.613,62.613,0,0,1-12.1-4.58c-2.748-1.4-5.18,2.743-2.422,4.144Z"/><path class="c" d="M198.949,139.1v4.849a17.162,17.162,0,0,0,.562,5.763c1.245,3.516,3.843,5.9,7.047,7.674,3.816,2.11,8.13,3.454,12.188,5.054a2.416,2.416,0,0,0,2.952-1.676,2.457,2.457,0,0,0-1.676-2.952c-3.38-1.333-6.933-2.482-10.176-4.115-2.473-1.245-4.962-2.816-5.825-5.606a16.791,16.791,0,0,1-.272-4.876V139.1c0-3.089-4.8-3.094-4.8,0Z"/><path class="c" d="M152.542,140.19v4.388a10,10,0,0,1-.507,4.135c-1.132,2.574-3.553,4.008-6.034,5.2-3.131,1.508-6.507,2.622-9.742,3.9a2.472,2.472,0,0,0-1.677,2.952,2.417,2.417,0,0,0,2.953,1.676,117.339,117.339,0,0,0,11.738-4.806c3.095-1.626,5.748-3.789,7.151-7.061,1.379-3.215.918-6.959.918-10.383,0-3.089-4.8-3.094-4.8,0Z"/><path class="c" d="M136.175,21.875C142.457,13.93,152.04,8.956,161.753,6.53a61.829,61.829,0,0,1,19.881-1.538,53.9,53.9,0,0,1,16.847,3.82,32.55,32.55,0,0,1,13.148,9.931,2.481,2.481,0,0,0,3.284.861,2.416,2.416,0,0,0,.861-3.284A37.048,37.048,0,0,0,203.285,5.793,54.018,54.018,0,0,0,185.294.57C171.765-1.161,157.643,1,145.706,7.775a44.206,44.206,0,0,0-12.925,10.706,2.477,2.477,0,0,0,0,3.394,2.417,2.417,0,0,0,3.394,0Z"/><path class="c" d="M125.388,77.217c-4.722-14.673-3.94-31.384,4.361-44.659a41.377,41.377,0,0,1,7.86-9.2c2.329-2.039-1.078-5.422-3.394-3.394-12.34,10.805-17.658,27.834-16.358,43.9a64.879,64.879,0,0,0,2.9,14.631c.942,2.928,5.579,1.676,4.629-1.277Z"/><path class="c" d="M218.248,25.776c11.449,9.269,14.525,25.342,13.721,39.342a67.091,67.091,0,0,1-1.833,12.173c-.736,3,3.892,4.28,4.629,1.276,3.708-15.1,3.122-32.818-4.914-46.5a35.669,35.669,0,0,0-8.209-9.686,2.472,2.472,0,0,0-3.394,0,2.419,2.419,0,0,0,0,3.395Z"/><path class="c" d="M128.6,104.785a59.617,59.617,0,0,0,8.292,19.816c4.219,6.42,9.774,12.454,16.527,16.248a32.686,32.686,0,0,0,11.056,3.835,2.477,2.477,0,0,0,2.952-1.676,2.419,2.419,0,0,0-1.676-2.953c-13.871-2.122-24.172-14.263-29.394-26.6a57.11,57.11,0,0,1-3.129-9.942c-.665-3.015-5.293-1.739-4.628,1.276Z"/><path class="c" d="M221.782,103.509a54.741,54.741,0,0,1-10.23,22.057,41.293,41.293,0,0,1-8.744,8.542,38.4,38.4,0,0,1-10.05,4.821c-2.924.953-1.672,5.59,1.277,4.628a41.646,41.646,0,0,0,16.737-9.907,57.64,57.64,0,0,0,12.541-19,59.2,59.2,0,0,0,3.1-9.87c.664-3.01-3.963-4.3-4.629-1.276Z"/><path class="c" d="M168.911,119.1a19.146,19.146,0,0,0,9.22,2.135,15,15,0,0,0,9.305-2.745,2.413,2.413,0,0,0,0-3.394,2.461,2.461,0,0,0-3.394,0c.728-.568.164-.134-.024-.014s-.375.228-.57.33c-.1.052-.2.1-.305.152-.389.2.1-.043.1-.032a4.975,4.975,0,0,1-.786.286,13.933,13.933,0,0,1-2.2.5c.354-.053-.064,0-.208.018q-.324.031-.648.053c-.521.034-1.043.047-1.564.044-.467,0-.934-.019-1.4-.051-.214-.014-.428-.031-.642-.053-.024,0-.8-.111-.308-.033a15.873,15.873,0,0,1-2.055-.457c-.288-.086-.568-.189-.852-.286-.613-.21.354.183-.2-.078-.352-.166-.7-.339-1.044-.521a2.453,2.453,0,0,0-3.284.861,2.426,2.426,0,0,0,.861,3.283Z"/><path class="c" d="M176.908,97.384a43.192,43.192,0,0,1,1.018,4.657l-.085-.638a2.823,2.823,0,0,1,.017.643l.086-.638a1.506,1.506,0,0,1-.071.289l.242-.573a1.2,1.2,0,0,1-.1.186l.375-.486a.98.98,0,0,1-.152.15l.486-.375a3.022,3.022,0,0,1-.369.195l.573-.242a2.647,2.647,0,0,1-.621.181l.638-.085a2.535,2.535,0,0,1-.584,0l.638.085c-.22-.03-.436-.084-.656-.113a1.812,1.812,0,0,0-.957-.043,1.774,1.774,0,0,0-.892.285,2.4,2.4,0,0,0-.861,3.283,2.3,2.3,0,0,0,1.434,1.1c.5.068.989.195,1.5.218a4.8,4.8,0,0,0,2.211-.526,3.193,3.193,0,0,0,1.769-2.1,5.27,5.27,0,0,0-.022-2.267c-.253-1.5-.6-2.987-.986-4.459a2.4,2.4,0,0,0-4.629,1.276Z"/><path class="c" d="M152.3,84.193c-.777,2.527-.271,8.341,4.517,8.836,6.329-.038,6.665-7.067,4.535-10.372C159.6,79.951,154.475,78.826,152.3,84.193Z"/><path class="c" d="M202.972,84.193c.778,2.527.271,8.341-4.517,8.836-6.328-.039-6.665-7.067-4.535-10.372C195.664,79.951,200.793,78.826,202.972,84.193Z"/><path class="c" d="M132.367,78.014a10.387,10.387,0,0,0-11.434-1.6,10.041,10.041,0,0,0-5.093,6.969,26.263,26.263,0,0,0,4.042,20.413c2.861,4.151,6.916,7.13,12.154,6.415a2.415,2.415,0,0,0,1.677-2.952,2.465,2.465,0,0,0-2.953-1.677c-3.59.491-6.4-3.365-7.879-6.084a22.63,22.63,0,0,1-2.776-8.9,19.666,19.666,0,0,1,.214-5.258A11.93,11.93,0,0,1,120.9,83.2a6.723,6.723,0,0,1,.5-.961c.036-.058.411-.6.246-.387a4.8,4.8,0,0,1,2.937-1.613,5.233,5.233,0,0,1,4.391,1.172c2.286,2.068,5.691-1.316,3.394-3.394Z"/><path class="c" d="M226.3,81.408a5.321,5.321,0,0,1,7.389.519c-.325-.4.133.224.185.309a6.723,6.723,0,0,1,.5.961,11.642,11.642,0,0,1,.549,1.968,19.539,19.539,0,0,1,.249,5.431,22.615,22.615,0,0,1-2.694,8.743c-1.471,2.766-4.313,6.739-7.962,6.24a2.483,2.483,0,0,0-2.952,1.677,2.416,2.416,0,0,0,1.676,2.952c8.538,1.166,13.5-7.155,15.753-14.187a24.767,24.767,0,0,0,.716-11.256,11.228,11.228,0,0,0-4.358-7.772A10.291,10.291,0,0,0,222.9,78.014c-2.3,2.077,1.108,5.463,3.394,3.394Z"/><path class="c" d="M193.842,52.863a37.837,37.837,0,0,1,12.131,8.842c3.549,3.69,6.923,7.958,8.862,12.742a2.476,2.476,0,0,0,2.952,1.676,2.415,2.415,0,0,0,1.676-2.952A47.386,47.386,0,0,0,209.645,58.6a41.655,41.655,0,0,0-13.38-9.884,2.479,2.479,0,0,0-3.284.861,2.419,2.419,0,0,0,.861,3.284Z"/><path class="c" d="M139.873,75.105c5.6-6.216,11.787-12.312,18.738-17.005.751-.507,1.516-1,2.3-1.449a3.857,3.857,0,0,0,.683-.419,7.632,7.632,0,0,1-.964-.175c-.084.073.113.739.079.539a18.92,18.92,0,0,1,.024,2.531,4.266,4.266,0,0,0,1.8,3.363c2.056,1.429,4.017.361,5.909-.726,1.8-1.031,3.579-2.085,5.37-3.126a120.424,120.424,0,0,1,13.119-6.921,2.414,2.414,0,0,0,.861-3.284,2.463,2.463,0,0,0-3.283-.861,110.557,110.557,0,0,0-11.769,6.14c-1.918,1.1-3.825,2.23-5.74,3.341-.716.415-1.433.829-2.154,1.235a3.523,3.523,0,0,0-.486.272c.019-.092.591-.176.816-.049l.283.26c.056.412.082.476.078.194a2.639,2.639,0,0,0,.057-.807c.1-2.313-.431-5.2-2.717-6.3-2.083-1-4.006.364-5.726,1.462a81.01,81.01,0,0,0-10.341,8.1,136.275,136.275,0,0,0-10.333,10.288c-2.062,2.29,1.322,5.7,3.394,3.394Z"/><path class="c" d="M110.527,325.223a3.946,3.946,0,0,0,1.289,3.24,4,4,0,0,0,2.445.82c.216.01.433,0,.649,0h2.473q4.509,0,9.018,0,14.831-.009,29.661-.023l36.147-.033,32.171-.03c5.877-.005,11.8.213,17.677-.013a3.755,3.755,0,0,0,3.912-3.65,2.412,2.412,0,0,0-2.4-2.4,2.462,2.462,0,0,0-2.4,2.4c.211-1.6,1.49-1.042.734-1.15a3.95,3.95,0,0,0-.533,0h-1.243l-3.459,0-10.387.009-30.309.027-35.068.032q-15.142.014-30.286.025c-5.313,0-10.626.014-15.94,0a2,2,0,0,0-.3,0c-.4.063-.032-.313.366.142l.617,1.059c-.1-.347,0,.313-.034-.462-.151-3.075-4.952-3.093-4.8,0Z"/><path class="c" d="M213.443,160.266a97.393,97.393,0,0,1,13.27,4.2q3.579,1.317,7.122,2.729,1.338.531,2.671,1.078.631.26,1.263.524c.472.2-.826-.359.28.119q.675.291,1.345.591a61.93,61.93,0,0,1,15.384,9.872,41.4,41.4,0,0,1,9.5,12.529c3,5.891,5,12.243,6.94,18.542.908,2.942,5.543,1.687,4.629-1.276-3.478-11.266-7.344-23.139-15.97-31.61a62.17,62.17,0,0,0-16.031-11.243c-4.326-2.128-8.876-3.85-13.381-5.557a109.031,109.031,0,0,0-15.75-5.128c-3.013-.639-4.3,3.987-1.276,4.629Z"/><path class="c" d="M108.769,296.623a19.224,19.224,0,0,1-16.672,9c-7.031-.191-14.33-5.12-18.35-10.76-3.481-4.884-5.269-10.546-7.107-16.226-2.277-7.038-4.2-14.187-6.157-21.32-2.007-7.321-3.944-14.7-6.53-21.84A2.463,2.463,0,0,0,51,233.805a2.42,2.42,0,0,0-1.676,2.952c5.086,14.049,8.05,28.789,12.635,43,1.964,6.087,4.044,12.627,7.866,17.842,4.9,6.685,12.767,12,21.165,12.764a23.954,23.954,0,0,0,21.923-11.318c1.58-2.662-2.568-5.08-4.145-2.422Z"/><path class="c" d="M243.033,212.354c-.312,13.279-.514,26.561-.71,39.842q-.359,24.239-.642,48.478-.151,12.564-.294,25.127c-.035,3.09,4.765,3.092,4.8,0q.262-23.136.559-46.272.3-23.344.683-46.688.175-10.244.4-20.487c.072-3.09-4.728-3.088-4.8,0Z"/><path class="c" d="M243.8,299.045A24.189,24.189,0,0,0,263.17,310.41c8.093.408,16.407-4.346,21.655-10.241,4.523-5.08,6.94-11.537,9.1-17.89,2.486-7.326,4.506-14.806,6.55-22.264,2.136-7.792,4.166-15.654,6.919-23.258a2.423,2.423,0,0,0-1.677-2.952,2.45,2.45,0,0,0-2.952,1.676c-4.813,13.3-7.72,27.224-11.912,40.716-1.771,5.7-3.524,11.369-6.464,16.464a26.859,26.859,0,0,1-17.759,12.773c-7,1.328-15.074-2.733-18.681-8.811-1.575-2.655-5.726-.243-4.144,2.422Z"/><path class="a" d="M21.143,54.093c-3.751,1.14-8.991,2.748-11.914,3.633a9.94,9.94,0,0,0-5.063,3.383C2.857,63,1.808,64.979,2.557,67.582c1.675,5.82,10.083,29.2,12.159,35.031a18.192,18.192,0,0,0,2.763,5.251c1.975,2.47,4.677,3.6,7.245,4.635q5.156,2.06,10.3,4.123a2.852,2.852,0,0,1,1.648,1.876c2.5,9.118,8.5,30.868,14.273,51.762l4.42,17.567,12.72-4.6c-3.114-9.441-11.368-34.461-14.214-43.073-3.464-10.483-6.414-19.4-8.084-24.415a2.854,2.854,0,0,1,.315-2.457l.016-.025q3.146-4.575,6.282-9.147c1.564-2.283,3.182-4.726,3.455-7.877a18.426,18.426,0,0,0-.616-5.9c-1.507-6-7.5-30.116-9.335-35.887-.821-2.58-2.787-3.65-4.924-4.493a9.924,9.924,0,0,0-6.089,0c-3.175.962-9.073,2.724-12.839,3.866Z"/><path class="c" d="M47.146,90.073,38.92,62.92c-.893-2.948-5.528-1.692-4.628,1.276l8.226,27.153c.893,2.948,5.528,1.691,4.628-1.276Z"/><path class="c" d="M25.9,96.511,17.669,69.359c-.893-2.949-5.528-1.692-4.628,1.276l8.226,27.152c.893,2.948,5.528,1.692,4.628-1.276Z"/><path class="c" d="M36.521,93.292,28.3,66.139c-.894-2.948-5.528-1.691-4.629,1.276l8.226,27.153c.894,2.948,5.528,1.692,4.629-1.276Z"/><path class="c" d="M53.263,169.622q-5.4-19.524-10.78-39.051c-1.175-4.265-2.129-8.675-3.545-12.866-1.12-3.312-4.856-4.03-7.753-5.19a68.552,68.552,0,0,1-9.094-3.866c-3.868-2.249-5.006-6.521-6.415-10.466Q13.537,92.2,11.418,86.207C9.946,82.039,8.482,77.869,7.06,73.684c-.548-1.614-1.092-3.23-1.61-4.854-.489-1.534-1.064-2.985-.377-4.571,1.085-2.507,3.109-3.706,5.616-4.468q4.105-1.248,8.209-2.5c5.265-1.607,10.54-3.18,15.81-4.772,2.518-.76,4.778-.912,7.107.479,1.426.851,1.811,2.15,2.245,3.644,1.057,3.637,2,7.309,2.952,10.975Q50,79.117,52.848,90.657c.688,2.766,1.036,5.587-.137,8.277-1.3,2.992-3.549,5.668-5.385,8.342-1.851,2.7-4.793,5.565-3.851,9.1.55,2.064,1.361,4.094,2.033,6.121q9.382,28.309,18.706,56.638l1.56,4.729c.963,2.919,5.6,1.669,4.629-1.276q-9.11-27.615-18.232-55.224-1.331-4.017-2.662-8.034-.5-1.521-1.01-3.043a6.569,6.569,0,0,1-.449-1.269c-.037-.537.394-.914.69-1.346,2.056-2.992,4.136-5.968,6.162-8.979a17.164,17.164,0,0,0,3.4-9.352c.058-4.047-1.381-8.191-2.36-12.1q-1.68-6.693-3.389-13.378c-1.048-4.088-2.1-8.176-3.224-12.244-.368-1.332-.7-2.694-1.169-4-1.075-3-3.357-4.731-6.234-5.869s-5.915-.654-8.788.213q-4.146,1.251-8.3,2.494c-5.42,1.631-10.859,3.222-16.251,4.943C2.9,57.23-1.412,62.77.432,68.859c1.047,3.458,2.253,6.87,3.436,10.283,2.717,7.841,5.516,15.653,8.305,23.469a21.107,21.107,0,0,0,4.165,7.592c2.344,2.5,5.538,3.726,8.644,4.968l4.927,1.972,2.239.9,1.344.537.9.359q-.444-.11-.243-.1a7.319,7.319,0,0,1,.692,2.034q.42,1.532.841,3.062,5,18.182,10.024,36.354,1.466,5.305,2.932,10.609c.822,2.973,5.454,1.711,4.629-1.276Z"/><path class="a" d="M93.186,211.354c-.184-4.637-1.615-8.761-2.463-13.12a46.475,46.475,0,0,0-3.383-9.828c-1.7-3.222-6.761-7.222-8.794-7.611H64.594a4.587,4.587,0,0,0-2.3-1.5,57.957,57.957,0,0,0-12.21-1,11.692,11.692,0,0,0-5.771,1.571,5.613,5.613,0,0,0-2.566,4.77,11.555,11.555,0,0,0,1.019,4.29c.673,1.806,2.98,5.741,3.489,6.907,0,0,.189.3.466.741a4.872,4.872,0,0,0-1.637,2.773,11.547,11.547,0,0,0,.338,5.469,6.717,6.717,0,0,0,1.857,3.114,6.485,6.485,0,0,1,1.336,2.289c.259,5.114.58,10.9,2.786,15.116a8.7,8.7,0,0,0,4.7,4.032A90.011,90.011,0,0,1,66.19,232.8a57.2,57.2,0,0,0,8.912,2.936c2.688.551,6.366-1.047,7.922-2.1,6.038-4.409,9.5-11.666,10.182-21.289Q93.206,211.843,93.186,211.354Z"/><path class="c" d="M62.084,193.905c2.281.552,4.568,1.089,6.81,1.787a20.191,20.191,0,0,1,5.882,2.492c.1.068.2.139.3.213-.126-.094-.124-.088,0,.016.221.191.435.389.636.6-.267-.282.085.124.148.232s.269.667.131.239c.07.218.125.432.183.653.136.517.036-.229.037.267,0,.228,0,.46,0,.688q-.04.435.018.045c-.017.113-.037.224-.062.335-.017.082-.2.695-.089.42s-.216.347-.266.417c.241-.338-.046.021-.165.135-.052.051-.562.44-.156.156a7.343,7.343,0,0,1-1.057.61c.5-.237,0-.011-.131.028a4.841,4.841,0,0,1-.651.152,2.42,2.42,0,0,0-1.676,2.953,2.455,2.455,0,0,0,2.952,1.676,7.6,7.6,0,0,0,5.663-4.562,7.925,7.925,0,0,0-1.567-7.918c-1.955-2.055-4.775-3.086-7.391-3.994-2.707-.939-5.5-1.6-8.28-2.27a2.4,2.4,0,0,0-1.276,4.629Z"/><path class="c" d="M61.32,205.1c2.306.512,4.641.892,6.938,1.443a21.664,21.664,0,0,1,5.935,2.226c.251.141.5.285.745.438.03.019.472.337.263.164-.176-.146.1.109.107.115.283.283-.006-.123.19.228.056.1.115.2.169.3.171.328-.08-.3.034.095s.111.235.118.564c0,.086-.019.692.011.46a3.358,3.358,0,0,1-.191.737c.018-.048.151-.3.014-.082-.26.413-.065.084-.049.092s-.328.247-.055.081c.24-.145-.048.035-.08.052-.149.082-.542.257-.164.118-.237.087-.479.138-.722.2-.265.071.042.009.09,0-.15.02-.3.029-.454.037a23.63,23.63,0,0,1-3.817-.145,54.735,54.735,0,0,1-8.207-1.871c-2.98-.833-4.251,3.8-1.276,4.628a60.415,60.415,0,0,0,9.2,2.01c2.869.339,6.255.567,8.59-1.448,2.393-2.065,2.486-6.179.677-8.633-1.742-2.363-5.084-3.6-7.8-4.445-2.932-.913-5.994-1.337-8.987-2a2.454,2.454,0,0,0-2.952,1.676A2.426,2.426,0,0,0,61.32,205.1Z"/><path class="c" d="M68.959,216.843c.555.315,1.085.658,1.611,1.019.422.288-.34-.3.013.01.118.1.239.2.354.307.229.21.433.437.643.665.337.365-.247-.39,0,0,.063.1.132.2.189.306.225.416.018-.122-.062-.175.057.038.087.254.109.329.032.115.06.232.084.349.017.08.031.161.044.241l-.054-.391a2.332,2.332,0,0,1,.029.817c0,.1-.059.577.007.118s-.006.008-.027.1c-.025.117-.055.233-.09.347-.03.1-.2.515-.021.091s-.01-.035-.057.056c-.206.4.271-.244.122-.15a2.966,2.966,0,0,0-.286.266c-.058.051-.118.1-.179.148q.4-.3.182-.149c-.25.153-.486.315-.75.447-.484.244.273-.089.053-.01-.134.049-.266.1-.4.144a10.449,10.449,0,0,1-1.8.387,2.39,2.39,0,0,0-1.434,1.1,2.448,2.448,0,0,0-.242,1.849,2.422,2.422,0,0,0,1.1,1.434,2.825,2.825,0,0,0,1.849.242,9.549,9.549,0,0,0,4.715-1.959,5.713,5.713,0,0,0,2.051-4.343,6.633,6.633,0,0,0-1.166-4.271,12.939,12.939,0,0,0-4.159-3.475,2.4,2.4,0,1,0-2.423,4.144Z"/><path class="c" d="M48.1,192.764a10.774,10.774,0,0,0-4.67,4.119c-1.248,2.276-1.164,5.522-.514,7.968a11.511,11.511,0,0,0,1.328,3.182,7.255,7.255,0,0,0,1.19,1.467c.059.054.446.464.072.014a5.64,5.64,0,0,1,.366.528c.126.195.238.4.357.595.075.125.116.428.035.064.006.029.01.837.028,1.156.078,1.4.172,2.791.317,4.181.5,4.746,1.375,10.284,5.206,13.568,2.076,1.779,4.488,2.256,7.024,3.069,2.416.773,4.783,1.693,7.15,2.6A52.785,52.785,0,0,0,74.234,238a12.064,12.064,0,0,0,6.905-.762,20.481,20.481,0,0,0,9.314-8.008,31.334,31.334,0,0,0,4.6-12.215,27.575,27.575,0,0,0,.354-7.9,70.351,70.351,0,0,0-1.595-8.054c-1.14-4.767-2.059-9.8-4.534-14.112a19.88,19.88,0,0,0-4.644-5.216c-1.568-1.3-3.411-2.786-5.446-3.249-3.007-.685-4.291,3.941-1.276,4.628.126.029.756.252.344.077a7.81,7.81,0,0,1,.9.474,16.157,16.157,0,0,1,1.822,1.247,18.585,18.585,0,0,1,3.675,3.7,18.316,18.316,0,0,1,2.062,4.441,43.579,43.579,0,0,1,1.617,5.408c.972,4.448,2.538,9.055,2.48,13.648a28.826,28.826,0,0,1-2.678,11.469,20.876,20.876,0,0,1-6.052,7.791,11.177,11.177,0,0,1-4.466,1.939c-2.014.416-4.042-.376-5.934-1.016-4.421-1.5-8.681-3.419-13.166-4.734-1.988-.583-3.624-1.126-4.784-2.987a16.454,16.454,0,0,1-1.894-5.653,55.042,55.042,0,0,1-.745-7.261,7.731,7.731,0,0,0-.647-3.321,9.857,9.857,0,0,0-1.427-2.053,7.4,7.4,0,0,1-1.654-5.87c.171-1.827,1.651-2.721,3.171-3.5,2.751-1.407.325-5.55-2.423-4.145Z"/><path class="c" d="M48.322,194.625c-.562-1.245-1.268-2.429-1.908-3.635-.337-.636-.67-1.273-.984-1.92a13.956,13.956,0,0,1-.85-2.156c-.485-1.476-.759-3.151.334-4.43,1.2-1.4,3.438-1.693,5.165-1.785a52.385,52.385,0,0,1,9.225.483c1.148.151,2.577.212,3.4,1.091a3.242,3.242,0,0,1,.662,3.292,2,2,0,0,1-.981.6,8.178,8.178,0,0,1-2.23.321c-1.8.075-3.608.036-5.409.047-3.088.02-3.095,4.82,0,4.8,3.743-.023,8.88.7,11.82-2.15,3.815-3.7,1.264-10.709-3.491-12.155a28.826,28.826,0,0,0-5.619-.845,61.013,61.013,0,0,0-6.252-.315c-5.281.042-11.2,2.011-11.815,8.05-.491,4.817,2.916,8.986,4.788,13.13a2.418,2.418,0,0,0,3.284.861,2.458,2.458,0,0,0,.861-3.284Z"/><polygon class="a" points="287.806 175.459 297.927 146.785 313.112 152.762 304.277 177.875 287.806 175.459"/><path class="c" d="M290.12,176.1l8.853-25.082,1.268-3.592a2.424,2.424,0,0,0-1.676-2.952,2.448,2.448,0,0,0-2.953,1.676l-8.853,25.082-1.268,3.592a2.4,2.4,0,0,0,4.629,1.276Z"/><path class="c" d="M310.8,152.124l-7.724,21.952-1.112,3.161a2.4,2.4,0,0,0,4.629,1.276l7.723-21.952,1.112-3.161a2.4,2.4,0,0,0-4.628-1.276Z"/><path class="e" d="M337.6,53.311c-29.088-9.871-56.84,5.837-65.785,32.2-10.009,29.5,3.637,56.779,32.295,66.5,29.763,10.1,56.154-3.809,66.1-33.116C379.214,92.355,366.586,63.146,337.6,53.311Z"/><path class="c" d="M358.138,82.727c-8.385-15.677-26.771-24.281-44.215-21.7-16.353,2.424-29.2,15.119-33.493,30.818a43.446,43.446,0,0,0-.017,23.843A38.837,38.837,0,0,0,292.866,134.4c12.275,10.095,30.308,13.8,45.12,7.439,15.733-6.762,25.588-24.751,24.88-41.56A43.759,43.759,0,0,0,361.8,92.46c-.684-3.011-5.312-1.736-4.628,1.276,3.5,15.406-3.554,33.4-17.209,41.7-12.188,7.4-28.013,5.646-39.845-1.693a35.346,35.346,0,0,1-13.451-15,36,36,0,0,1-2.782-19.987c1.984-14.528,11.545-27.5,25.83-31.853,14.712-4.482,32.09,1.081,41.282,13.489a38.4,38.4,0,0,1,3,4.766c1.457,2.725,5.6.3,4.144-2.423Z"/><path class="c" d="M338.237,51a54.935,54.935,0,0,0-35.253-.244,53.777,53.777,0,0,0-26.391,20.009c-12.837,18.29-14.437,44.8-1.224,63.3,13.012,18.22,38.357,27.525,60.1,22.122,21.813-5.419,36.78-25.968,39.558-47.686a52.76,52.76,0,0,0-28.552-54.023A62.714,62.714,0,0,0,338.237,51c-2.928-1-4.186,3.631-1.276,4.628a50.263,50.263,0,0,1,24.828,18.113,48.449,48.449,0,0,1,8.875,27.276c.272,19.762-11.4,40.574-29.951,48.4a48.377,48.377,0,0,1-29.271,2.174c-10.429-2.328-20.343-7.268-27.8-15.015a45.607,45.607,0,0,1-12.288-25.556,54.76,54.76,0,0,1,5.354-31.065,49.565,49.565,0,0,1,21.359-21.9,48.291,48.291,0,0,1,30.443-4.595,58.165,58.165,0,0,1,8.45,2.171C339.9,56.61,341.155,51.976,338.237,51Z"/><path class="a" d="M312.22,182.017a7.428,7.428,0,0,0-3.092-4.62c-2.595-1.8-5.783-1.614-8.869-.648a4.639,4.639,0,0,0-2.361-3.38,9.212,9.212,0,0,0-5.3-.805c-4.581,1.006-12.469,5.285-14.486,7.268-3.9,3.844-5.879,7.41-6.8,10.927-1.439,5.538-2.643,18.48.364,25.475,1.144,2.68.073,6.193-.433,7.552a11.378,11.378,0,0,0,2.5,1.455,99.161,99.161,0,0,0,15.583,5.817l4.613-1.49c6.814-2.2,20.6-11.808,22.782-14.931,2.047-2.923,1.315-7.909.635-11.413a26.118,26.118,0,0,0-3.441-9.57,11.733,11.733,0,0,1-1.766-3.077c-.594-2.065.065-4.221.217-6.365A7.952,7.952,0,0,0,312.22,182.017Z"/><path class="c" d="M273.558,224.424c1.006-2.76,1.5-6.019.433-8.828a26.507,26.507,0,0,1-1.648-7.608,54.107,54.107,0,0,1,1.071-15.707,19.54,19.54,0,0,1,3.476-7.478,24.5,24.5,0,0,1,3.033-3.386c.137-.126.279-.246.423-.364-.414.34.19-.137.226-.163q.78-.549,1.59-1.05a48.194,48.194,0,0,1,7.314-3.744c2.273-.915,4.57-1.765,6.973-.763,2.5,1.04,1.509,3.915-.081,5.247.5-.418-.586.361-.565.348q-.656.411-1.321.805-1.056.621-2.143,1.19c-1.594.838-3.222,1.613-4.835,2.414-2.767,1.374-.338,5.516,2.422,4.145,5.427-2.695,14.445-5.919,12.587-13.652-.926-3.855-4.537-5.566-8.215-5.77-3.1-.171-6.322,1.412-9.061,2.688a41.82,41.82,0,0,0-7.463,4.273,25.364,25.364,0,0,0-6.815,8.17c-2.828,5.268-3.381,11.7-3.527,17.579a43.585,43.585,0,0,0,.956,11.07c.362,1.53,1.247,3.052,1.381,4.609a11.143,11.143,0,0,1-.839,4.7,2.421,2.421,0,0,0,1.676,2.952,2.45,2.45,0,0,0,2.952-1.676Z"/><path class="c" d="M302.1,178.73c2.4-.541,5.1-.436,6.775,1.636,1.69,2.094.942,4.633.7,7.058a9.354,9.354,0,0,0,.624,4.738c.6,1.365,1.58,2.5,2.3,3.794a26.449,26.449,0,0,1,2.537,7.906,21.909,21.909,0,0,1,.542,6.974,6.5,6.5,0,0,1-.936,2.59c-.228.382.4-.443.062-.085-.068.071-.126.151-.195.222-.243.249-.479.5-.731.742a60.151,60.151,0,0,1-8.888,6.706c-2.077,1.362-4.2,2.661-6.38,3.847a31.544,31.544,0,0,1-5.215,2.4c-2.92.964-1.669,5.6,1.276,4.628a54.549,54.549,0,0,0,12.188-6.366,68.181,68.181,0,0,0,10.481-7.883c3.862-3.736,3.478-9.155,2.609-14.057a34.066,34.066,0,0,0-2.811-9.291c-.671-1.352-1.7-2.491-2.365-3.834-.687-1.392-.3-3.067-.106-4.541.47-3.517-.171-7.011-2.882-9.519-3.017-2.792-7-3.161-10.866-2.289-3.012.679-1.737,5.308,1.276,4.628Z"/><path class="c" d="M290.985,185.8c-3.532,2.742-7.417,7.187-6.187,12.007a7.816,7.816,0,0,0,4.666,5.363c2.384.814,4.874-.265,7.141-.957l-1.85-4.386c-3.765,1.6-7.347,4.5-6.527,9.037a5.957,5.957,0,0,0,3.614,4.556,9,9,0,0,0,5.971-.148l-1.849-4.387c-3.669,1.792-6.649,5.512-4.614,9.679,1.624,3.325,5.9,3.967,9.233,3.706a2.461,2.461,0,0,0,2.4-2.4,2.419,2.419,0,0,0-2.4-2.4,12.62,12.62,0,0,1-2.376.028c-.745-.116-2.057-.284-2.509-.927-1.09-1.548,1.432-2.928,2.689-3.541,2.443-1.194.732-5.2-1.85-4.387-1.52.479-3.662,1.033-3.648-1.137.012-1.874,2.884-2.938,4.289-3.535,2.513-1.067.717-5.169-1.849-4.386-1.163.355-3.063,1.407-4.289,1.054a3.083,3.083,0,0,1-1.689-2.515c-.129-1.273.792-2.606,1.538-3.564a19.689,19.689,0,0,1,3.49-3.366,2.412,2.412,0,0,0,0-3.394,2.462,2.462,0,0,0-3.394,0Z"/><path class="c" d="M268.147,223.821c1.44,2.216,3.729,3.214,6.056,4.259s4.657,2.015,7.038,2.885c4.472,1.633,9.072,2.879,13.641,4.2,2.973.861,4.242-3.77,1.276-4.629-4.219-1.222-8.465-2.377-12.611-3.834q-2.9-1.018-5.726-2.24c-1.076-.469-2.15-.946-3.208-1.456a5.394,5.394,0,0,1-2.322-1.611c-1.677-2.58-5.834-.177-4.144,2.423Z"/></svg>